<svg width="32" height="24" viewBox="0 0 32 24" fill="none" xmlns="http://www.w3.org/2000/svg">
<path d="M11.352 21.4082V23.6802H1.136V21.4082L5.112 20.2722L10.224 21.4082H11.352Z" fill="#FDBF00"/>
<path d="M10.216 21.4081H11.352V23.6801H5.68V20.4001L10.216 21.4081Z" fill="#FF9F00"/>
<path d="M10.216 19.1362V21.4082H0V19.1362H1.136L6.064 18.0002L10.216 19.1362Z" fill="#FFD400"/>
<path d="M6.064 18.0002L10.216 19.1362V21.4082H5.68V18.0962L6.064 18.0002Z" fill="#FDBF00"/>
<path d="M11.352 16.864V19.136H1.136V16.864L5.112 15.728L10.224 16.864H11.352Z" fill="#FDBF00"/>
<path d="M10.216 16.8642H11.352V19.1362H5.68V15.8562L10.216 16.8642Z" fill="#FF9F00"/>
<path d="M10.216 14.5921V16.8641H0V14.5921H1.136L6.064 13.4561L10.216 14.5921Z" fill="#FFD400"/>
<path d="M6.064 13.4561L10.216 14.5921V16.8641H5.68V13.5521L6.064 13.4561Z" fill="#FDBF00"/>
<path d="M11.352 12.3201V14.5921H1.136V12.3201L5.112 11.1841L10.224 12.3201H11.352Z" fill="#FDBF00"/>
<path d="M10.216 12.32H11.352V14.592H5.68V11.312L10.216 12.32Z" fill="#FF9F00"/>
<path d="M10.216 10.0161V12.3281H0V10.0161H1.136L6.064 8.88013L10.216 10.0161Z" fill="#FFD400"/>
<path d="M6.064 8.88013L10.216 10.0161V12.3281H5.68V8.97613L6.064 8.88013Z" fill="#FDBF00"/>
<path d="M11.352 7.74412V10.0161H1.136V7.74412L5.112 6.56812L5.68 6.72812L10.224 7.73612H11.352V7.74412Z" fill="#FDBF00"/>
<path d="M11.352 7.74408V10.0161H5.68V6.73608L10.224 7.74408H11.352Z" fill="#FF9F00"/>
<path d="M0 5.43213H10.216V7.74413H0V5.43213Z" fill="#FFD400"/>
<path d="M5.68 5.43213H10.224V7.74413H5.68V5.43213Z" fill="#FDBF00"/>
<path d="M20.328 23.6641C26.7743 23.6641 32 18.4383 32 11.9921C32 5.5458 26.7743 0.320068 20.328 0.320068C13.8817 0.320068 8.656 5.5458 8.656 11.9921C8.656 18.4383 13.8817 23.6641 20.328 23.6641Z" fill="#EFF2FA"/>
<path d="M30.312 5.97607C29.952 13.0241 23.944 18.4481 16.896 18.0801C13.976 17.9281 11.2 16.7841 9.02399 14.8401C10.584 21.0881 16.92 24.8881 23.168 23.3201C29.416 21.7601 33.216 15.4241 31.648 9.17607C31.368 8.05607 30.912 6.97607 30.312 5.97607Z" fill="#D9DDE1"/>
<path d="M19.776 3.104H20.888V8.664H19.776V3.104Z" fill="#203342"/>
<path d="M11.712 9.78408L12.08 8.73608L17.12 10.5281L16.752 11.5761L11.712 9.78408Z" fill="#203342"/>
<path d="M14.728 18.752L17.928 14.616L18.808 15.296L15.608 19.432L14.728 18.752Z" fill="#203342"/>
<path d="M21.656 15.0401L22.536 14.3601L26.128 19.0241L25.248 19.7041L21.656 15.0401Z" fill="#203342"/>
<path d="M23.528 10.52L28.568 8.72803L28.936 9.77603L23.896 11.568L23.528 10.52Z" fill="#203342"/>
<path d="M20.328 8.104L16.44 10.88L18.104 15.328H22.552L24.216 10.88L20.328 8.104Z" fill="#244F63"/>
<path d="M16.664 0.959975L20.44 3.65597L24.216 0.959975C21.776 0.111975 19.112 0.111975 16.664 0.959975Z" fill="#244F63"/>
<path d="M11.008 5C9.488 7.016 8.664 9.472 8.664 11.992C8.664 12.056 8.672 12.112 8.672 12.176L12.408 9.416L11.008 5Z" fill="#244F63"/>
<path d="M15.432 18.736L10.792 18.696C12.28 20.816 14.432 22.384 16.904 23.144L15.432 18.736Z" fill="#6B778A"/>
<path d="M23.752 23.144C26.224 22.376 28.376 20.816 29.864 18.696L25.224 18.736L23.752 23.144Z" fill="#244F63"/>
<path d="M28.256 9.416L31.992 12.176C31.992 12.112 32 12.056 32 11.992C32 9.464 31.176 7.008 29.656 5L28.256 9.416Z" fill="#244F63"/>
<path d="M30.312 5.99219C30.24 7.44819 29.912 8.88819 29.352 10.2322L31.984 12.1762C31.984 12.1122 31.992 12.0562 31.992 11.9922C31.992 9.88019 31.416 7.80019 30.312 5.99219Z" fill="#1B3D49"/>
<path d="M18.232 12.3601H0V23.6801H18.232V12.3601Z" fill="#2E833C"/>
<path d="M15.72 22.4162C15.72 19.9522 16.928 19.6002 16.976 19.5842V16.4402C16.952 16.4322 15.72 16.1042 15.72 13.6082C15.696 13.6082 2.536 13.6082 2.512 13.6082C2.512 16.0722 1.304 16.4242 1.256 16.4402V19.5842C1.28 19.5922 2.512 19.9202 2.512 22.4162C2.536 22.4162 15.696 22.4162 15.72 22.4162Z" fill="#3DAE50"/>
<path d="M3.776 18.96C4.29736 18.96 4.72 18.5374 4.72 18.016C4.72 17.4947 4.29736 17.072 3.776 17.072C3.25464 17.072 2.832 17.4947 2.832 18.016C2.832 18.5374 3.25464 18.96 3.776 18.96Z" fill="#2E833C"/>
<path d="M9.12 20.8481C10.6841 20.8481 11.952 19.5802 11.952 18.0161C11.952 16.452 10.6841 15.1841 9.12 15.1841C7.55593 15.1841 6.288 16.452 6.288 18.0161C6.288 19.5802 7.55593 20.8481 9.12 20.8481Z" fill="#2E833C"/>
<path d="M9.976 18.4082L10.608 18.9682C10.488 19.1202 10.344 19.2482 10.176 19.3442C10.008 19.4402 9.808 19.5042 9.6 19.5362V20.0002H9.008V19.5362C8.744 19.4962 8.504 19.4082 8.296 19.2722C8.088 19.1362 7.928 18.9522 7.816 18.7362C7.704 18.5202 7.64 18.2802 7.64 18.0082C7.64 17.7362 7.696 17.4962 7.816 17.2802C7.928 17.0642 8.096 16.8882 8.296 16.7442C8.504 16.6082 8.736 16.5202 9.008 16.4802V16.0242H9.6V16.4802C9.816 16.5122 10.008 16.5762 10.176 16.6722C10.344 16.7682 10.496 16.8962 10.608 17.0482L9.976 17.6082C9.792 17.3762 9.576 17.2642 9.328 17.2642C9.12 17.2642 8.952 17.3282 8.824 17.4642C8.696 17.6002 8.632 17.7762 8.632 18.0002C8.632 18.2242 8.696 18.4082 8.824 18.5362C8.952 18.6642 9.12 18.7362 9.328 18.7362C9.576 18.7522 9.792 18.6402 9.976 18.4082Z" fill="#3DAE50"/>
<path d="M14.464 18.96C14.9854 18.96 15.408 18.5374 15.408 18.016C15.408 17.4947 14.9854 17.072 14.464 17.072C13.9426 17.072 13.52 17.4947 13.52 18.016C13.52 18.5374 13.9426 18.96 14.464 18.96Z" fill="#2E833C"/>
</svg>
