<svg width="28" height="32" viewBox="0 0 28 32" fill="none" xmlns="http://www.w3.org/2000/svg">
<path d="M15.208 0H3.976C2.32 0 0.975998 1.344 0.975998 2.992V29.008C0.975998 30.656 2.32 32 3.976 32H15.216C16.864 32 18.208 30.656 18.208 29.008V2.992C18.2 1.344 16.864 0 15.208 0Z" fill="#203342"/>
<path d="M2.64 29.008V2.992C2.64 1.344 3.984 0 5.632 0H3.976C2.32 0 0.975998 1.344 0.975998 2.992V29.008C0.975998 30.656 2.32 32 3.976 32H5.632C3.984 32 2.64 30.656 2.64 29.008Z" fill="#203342"/>
<path d="M16.544 29.008C16.544 29.744 15.944 30.344 15.208 30.344H3.976C3.24 30.344 2.64 29.744 2.64 29.008V2.99201C2.64 2.25601 3.24 1.65601 3.976 1.65601H5.376C5.648 1.65601 5.872 1.88001 5.872 2.15201V2.47201C5.872 2.89601 6.216 3.24801 6.648 3.24801H12.536C12.96 3.24801 13.312 2.90401 13.312 2.47201V2.01601C13.312 1.81601 13.472 1.65601 13.672 1.65601H15.216C15.952 1.65601 16.552 2.25601 16.552 2.99201V29.008H16.544Z" fill="#C9E3FE"/>
<path d="M4.232 29.008V2.99201C4.232 2.29601 4.768 1.72001 5.448 1.66401C5.368 1.65601 5.456 1.66401 3.976 1.65601C3.24 1.65601 2.64 2.25601 2.64 2.99201V29.008C2.64 29.744 3.24 30.344 3.976 30.344H5.568C4.832 30.344 4.232 29.744 4.232 29.008Z" fill="#BAD1EB"/>
<path d="M11.536 2.14408H9.016C8.752 2.14408 8.536 1.92808 8.536 1.66408C8.536 1.40008 8.752 1.18408 9.016 1.18408H11.536C11.8 1.18408 12.016 1.40008 12.016 1.66408C12.016 1.92808 11.8 2.14408 11.536 2.14408Z" fill="#314D60"/>
<path d="M7.224 2.05602C6.88 1.83202 6.96 1.27202 7.4 1.18402C7.696 1.12002 7.976 1.35202 7.976 1.65602C7.976 1.88002 7.82399 2.08002 7.58399 2.12802C7.55999 2.13602 7.328 2.12802 7.224 2.05602Z" fill="#314D60"/>
<path d="M27.024 13.4641V27.1201C27.016 28.0241 26.288 28.7521 25.384 28.7601H12.272C11.368 28.7521 10.64 28.0241 10.632 27.1201V10.2721C10.64 9.36808 11.368 8.64008 12.272 8.63208H22.184C22.616 8.63208 23.032 8.80008 23.336 9.11208L26.536 12.3121C26.848 12.6241 27.016 13.0321 27.024 13.4641Z" fill="#FBCC04"/>
<path d="M27.024 13.4641V14.2481H23.04C22.136 14.2481 21.4 13.5201 21.4 12.6161V12.6081V8.63208H22.184C22.616 8.63208 23.032 8.80008 23.336 9.11208L26.536 12.3121C26.848 12.6241 27.016 13.0321 27.024 13.4641Z" fill="#FF9500"/>
<path d="M23.512 18.4642H14.152C13.768 18.4642 13.448 18.1522 13.448 17.7602C13.448 17.3682 13.76 17.0562 14.152 17.0562H23.512C23.896 17.0562 24.216 17.3682 24.216 17.7602C24.216 18.1522 23.896 18.4642 23.512 18.4642Z" fill="#FF9500"/>
<path d="M23.512 22.208H14.152C13.768 22.208 13.448 21.896 13.448 21.504C13.448 21.112 13.76 20.8 14.152 20.8H23.512C23.896 20.8 24.216 21.112 24.216 21.504C24.216 21.896 23.896 22.208 23.512 22.208Z" fill="#FF9500"/>
<path d="M23.512 25.9522H14.152C13.768 25.9522 13.448 25.6402 13.448 25.2482C13.448 24.8562 13.76 24.5442 14.152 24.5442H23.512C23.896 24.5442 24.216 24.8562 24.216 25.2482C24.216 25.6402 23.896 25.9522 23.512 25.9522Z" fill="#FF9500"/>
<path d="M20.232 14.72H17.424C17.04 14.72 16.72 14.408 16.72 14.016C16.72 13.632 17.032 13.312 17.424 13.312H20.232C20.616 13.312 20.936 13.624 20.936 14.016C20.936 14.408 20.624 14.72 20.232 14.72Z" fill="#FF9500"/>
<path d="M14.616 14.9521C15.1329 14.9521 15.552 14.533 15.552 14.0161C15.552 13.4991 15.1329 13.0801 14.616 13.0801C14.0991 13.0801 13.68 13.4991 13.68 14.0161C13.68 14.533 14.0991 14.9521 14.616 14.9521Z" fill="#FF9500"/>
</svg>
